v 1.000000 -1.000000 -1.000000
v 1.000000 -1.000000 1.000000
v -1.000000 -1.000000 1.000000
v -1.000000 -1.000000 -1.000000
v 1.000000 1.000000 -1.000000
v 1.000000 1.000000 1.000000
v -1.000000 1.000000 1.000000
v -1.000000 1.000000 -1.000000
v 1.000000 -1.000000 -1.000000
v 1.000000 -1.000000 -1.000000
v 1.000000 -1.000000 1.000000
v 1.000000 -1.000000 1.000000
v -1.000000 -1.000000 -1.000000
v -1.000000 -1.000000 -1.000000
v 1.000000 1.000000 -1.000000
v 1.000000 1.000000 -1.000000
v -1.000000 -1.000000 1.000000
v -1.000000 -1.000000 1.000000
v 1.000000 1.000000 1.000000
v 1.000000 1.000000 1.000000
v -1.000000 1.000000 1.000000
v -1.000000 1.000000 1.000000
v -1.000000 1.000000 -1.000000
v -1.000000 1.000000 -1.000000
vt 0.000000 0.000000
vt 0.333333 0.000000
vt 0.666666 0.000000
vt 0.000000 0.500000
vt 0.333333 0.500000
vt 0.666666 0.500000
vn 0.000000 -1.000000 0.000000
vn 0.000000 1.000000 0.000000
vn 1.000000 0.000000 0.000000
vn 0.000000 0.000000 1.000000
vn -1.000000 0.000000 0.000000
vn 0.000000 0.000000 -1.000000
f 11/1/1 17/1/1 13/1/1
f 24/5/2 22/5/2 20/5/2
f 15/1/3 19/1/3 12/1/3
f 6/5/4 21/5/4 18/5/4
f 3/1/5 7/1/5 23/1/5
f 1/1/6 4/1/6 8/1/6
f 9/1/1 11/1/1 13/1/1
f 16/1/2 24/1/2 20/1/2
f 10/1/3 15/1/3 12/1/3
f 2/1/4 6/1/4 18/1/4
f 14/1/5 3/1/5 23/1/5
f 5/1/6 1/1/6 8/1/6
